<svg height="217.64954" width="540.12909" xmlns="http://www.w3.org/2000/svg"><path d="m98.41223 209.00668-75.32667-149.553414 258.47834-50.810409z" fill="#ddd" stroke="#ececec" stroke-linecap="round" stroke-linejoin="round" stroke-width="3"/><g transform="scale(.99686368 1.0031462)"><g fill="#4e5d64"><path d="m72.766297 111.54968v4.75883h-44.732998c.422991 6.69763 2.432272 11.80897 6.027851 15.33401 3.630785 3.48982 8.671614 5.23472 15.122503 5.23471 3.736521.00001 7.349703-.45825 10.839556-1.37477 3.525007-.91651 7.014812-2.29128 10.469425-4.12432v9.2004c-3.489863 1.48053-7.067795 2.60855-10.733804 3.38406-3.666106.77551-7.385039 1.16327-11.156812 1.16327-9.447185 0-16.937928-2.74955-22.472251-8.24864-5.4991-5.49908-8.248643-12.93695-8.248637-22.31362-.000006-9.69388 2.608535-17.378496 7.82563-23.053887 5.252319-5.710538 12.320055-8.565833 21.20323-8.565894 7.96659.000061 14.258814 2.573352 18.87669 7.71988 4.65302 5.111383 6.979556 12.073371 6.979617 20.885971m-9.729163-2.8553c-.07055-5.32279-1.5687-9.570486-4.49445-12.743083-2.890592-3.172502-6.732902-4.758777-11.526942-4.75883-5.428621.000053-9.782064 1.533452-13.060344 4.600202-3.243073 3.066846-5.111352 7.385041-5.604843 12.954591l34.686579-.0529"/><path d="m85.350755 64.648774h11.474067l19.616948 29.346115 19.72271-29.346115h11.47407l-25.38043 37.912006 27.07245 41.03169h-11.47406l-22.20787-33.57619-22.366502 33.57619h-11.526943l28.182845-42.14208z" fill="#f00"/><path d="m189.88638 113.82335c-7.86091.00003-13.30712.89891-16.33864 2.69667-3.03157 1.7978-4.54735 4.8646-4.54733 9.2004-.00002 3.45457 1.128 6.20411 3.38406 8.24864 2.29126 2.00929 5.39331 3.01393 9.30615 3.01392 5.39331.00001 9.7115-1.90352 12.95459-5.71059 3.27826-3.8423 4.91741-8.93601 4.91746-15.28113v-2.16791zm19.40545-4.01857v33.78769h-9.72916v-8.9889c-2.22083 3.59556-4.988 6.25698-8.30151 7.98426-3.31359 1.69202-7.36741 2.53804-12.16146 2.53804-6.06312 0-10.89244-1.69203-14.48799-5.07609-3.56032-3.4193-5.34047-7.98424-5.34046-13.69485-.00001-6.66234 2.22078-11.68554 6.66236-15.06963 4.47681-3.38402 11.13916-5.07604 19.98708-5.07608h13.64198v-.95177c-.00005-4.47678-1.48057-7.931334-4.44157-10.363671-2.92584-2.46749-7.05016-3.701259-12.37296-3.701312-3.38408.000053-6.68001.405434-9.88779 1.216146-3.20782.810814-6.29224 2.026958-9.25328 3.648436v-8.988901c3.56029-1.374715 7.01485-2.396981 10.36367-3.066801 3.34878-.704951 6.60946-1.057457 9.78204-1.057518 8.56585.000061 14.96383 2.220846 19.19395 6.662362 4.23001 4.441624 6.34505 11.174479 6.3451 20.198589"/><path d="m275.49244 95.739793c2.43223-4.37102 5.3404-7.596446 8.72452-9.676286 3.38399-2.079726 7.3673-3.119617 11.94995-3.119678 6.16877.000061 10.92759 2.16797 14.27649 6.503734 3.34871 4.300622 5.02311 10.434218 5.02321 18.400807v35.7441h-9.78204v-35.42684c-.00009-5.67531-1.00473-9.887749-3.01393-12.63734-2.00936-2.749495-5.07616-4.124267-9.2004-4.124319-5.0409.000052-9.02422 1.674453-11.94995 5.023209-2.92586 3.34885-4.38876 7.9138-4.3887 13.69485v33.47044h-9.78204v-35.42684c-.00005-5.71056-1.00469-9.922999-3.01392-12.63734-2.00933-2.749495-5.11138-4.124267-9.30616-4.124319-4.97036.000052-8.91842 1.692079-11.8442 5.076085-2.92582 3.348849-4.38871 7.896174-4.38869 13.641974v33.47044h-9.78204v-59.220992h9.78204v9.200404c2.22076-3.630757 4.88218-6.309799 7.98425-8.037134 3.10203-1.727219 6.78571-2.590858 11.05106-2.590919 4.30053.000061 7.94897 1.092828 10.94531 3.278305 3.0315 2.185592 5.26991 5.358142 6.71524 9.517659"/><path d="m344.33683 134.70932v31.40827h-9.78204v-81.746112h9.78204v8.988901c2.04451-3.525006 4.6178-6.133547 7.71988-7.825631 3.13727-1.727219 6.87383-2.590858 11.20968-2.590919 7.19108.000061 13.02505 2.855356 17.50192 8.565894 4.51202 5.710641 6.76805 13.219007 6.76812 22.525127-.00007 9.30617-2.2561 16.81454-6.76812 22.52513-4.47687 5.71059-10.31084 8.56589-17.50192 8.56589-4.33585 0-8.07241-.84602-11.20968-2.53804-3.10208-1.72728-5.67537-4.35345-7.71988-7.87851m33.1003-20.67447c-.00005-7.15583-1.48057-12.76067-4.44157-16.814532-2.92585-4.089018-6.96204-6.13355-12.10858-6.133602-5.14662.000052-9.20043 2.044584-12.16145 6.133602-2.92582 4.053862-4.38872 9.658702-4.3887 16.814532-.00002 7.15589 1.46288 12.77835 4.3887 16.86741 2.96102 4.05382 7.01483 6.08073 12.16145 6.08072 5.14654.00001 9.18273-2.0269 12.10858-6.08072 2.961-4.08906 4.44152-9.71152 4.44157-16.86741"/><path d="m403.66357 61.317593h9.72916v82.274877h-9.72916z"/><path d="m484.35217 111.54968v4.75883h-44.73299c.42299 6.69763 2.43227 11.80897 6.02785 15.33401 3.63078 3.48982 8.67161 5.23472 15.1225 5.23471 3.73652.00001 7.3497-.45825 10.83956-1.37477 3.525-.91651 7.01481-2.29128 10.46942-4.12432v9.2004c-3.48986 1.48053-7.06779 2.60855-10.7338 3.38406-3.66611.77551-7.38504 1.16327-11.15682 1.16327-9.44718 0-16.93792-2.74955-22.47225-8.24864-5.4991-5.49908-8.24864-12.93695-8.24863-22.31362-.00001-9.69388 2.60853-17.378496 7.82563-23.053887 5.25232-5.710538 12.32005-8.565833 21.20323-8.565894 7.96659.000061 14.25881 2.573352 18.87669 7.71988 4.65302 5.111383 6.97955 12.073371 6.97961 20.885971m-9.72916-2.8553c-.0706-5.32279-1.5687-9.570486-4.49445-12.743083-2.89059-3.172502-6.7329-4.758777-11.52694-4.75883-5.42862.000053-9.78207 1.533452-13.06035 4.600202-3.24307 3.066846-5.11135 7.385041-5.60484 12.954591l34.68658-.0529"/></g><path d="m506.64489 76.68912v1.846426c-1.17564-.470222-2.06773-.767586-2.67628-.892093-.59474-.13828-1.16181-.207434-1.7012-.207464-.89902.00003-1.59748.145254-2.09538.435673-.48409.290478-.72613.760728-.72612 1.410752-.00001.553263.15904.940528.47716 1.161796.33194.221321.97507.408038 1.92941.560151l1.1618.186717c1.54905.248982 2.68318.670824 3.4024 1.265528.73302.594752 1.09954 1.34162 1.09956 2.240606-.00002 1.092662-.49793 1.957092-1.49374 2.593293-.99584.62241-2.46191.933605-4.39823.933586-.71921.000019-1.47991-.06222-2.28209-.186717-.78837-.13829-1.67355-.352669-2.65554-.643137v-1.991649c1.25861.580918 2.23369.954352 2.92524 1.120302.69153.165992 1.36233.248977 2.01239.248957.95432.00002 1.68736-.15212 2.19912-.45642.52556-.304259.78834-.802171.78836-1.493737-.00002-.608537-.19365-1.058041-.5809-1.348513-.37345-.290425-.99584-.504804-1.86717-.643137l-1.1618-.186717c-1.54907-.248932-2.66937-.636196-3.36091-1.161796-.67772-.539379-1.01657-1.230923-1.01657-2.074635 0-.995796.47716-1.811818 1.4315-2.448069.95433-.636191 2.28901-.954301 4.00405-.954332.70536.000031 1.41765.05535 2.13687.165971.73303.09685 1.54905.269733 2.44807.518658m2.96673-.477166h3.81733l3.34016 7.053759 3.36091-7.053759h3.81733v11.783927h-2.863v-8.381525l-2.90449 6.140919h-2.80076l-2.92523-6.140919v8.381525h-2.84225z"/></g></svg>