<svg fill="none" height="47" viewBox="0 0 66 47" width="66" xmlns="http://www.w3.org/2000/svg"><path d="m13.0759 18.8849c-1.8983-1.3725-3.17257-2.675-3.82295-3.9076-.63871-1.238-.72306-2.5086-.25306-3.8119.53185-1.47473 1.55821-2.48044 3.07921-3.01711 1.5326-.54215 3.2421-.47309 5.1284.20718 1.2861.46382 2.3411 1.12527 3.1649 1.98433.8324.8622 1.3652 1.8295 1.5986 2.9019.2419 1.0756.1758 2.1321-.1984 3.1695l-2.4822-.8951c.4082-1.1318.3681-2.1491-.1202-3.0519-.4852-.9114-1.3837-1.6036-2.6955-2.0767-1.2176-.43907-2.2667-.51221-3.1474-.2194-.8691.2873-1.4752.9068-1.8184 1.8585-.2752.7631-.1872 1.5264.2642 2.2899.463.758 1.3916 1.6355 2.7858 2.6325 1.4028 1 2.4456 1.9235 3.1284 2.7705.6945.8415 1.1251 1.6896 1.2916 2.5442.1752.8576.0911 1.7623-.2521 2.7141-.5473 1.5176-1.578 2.5217-3.0921 3.0124-1.511.4822-3.2567.3661-5.2374-.3482-1.28606-.4638-2.3983-1.1411-3.33668-2.0318-.93528-.8992-1.55269-1.8873-1.85224-2.9643-.29097-1.0738-.2401-2.1552.1526-3.2441l2.48219.8951c-.40816 1.1318-.31545 2.1778.27814 3.1379.60525.9547 1.60666 1.684 3.00419 2.188 1.3033.47 2.398.5645 3.2842.2833.8863-.2811 1.4948-.8804 1.8256-1.7978.3309-.9174.2645-1.7407-.1992-2.4699-.4606-.7378-1.4474-1.6556-2.9602-2.7535z" fill="#d72323"/><path d="m21.9297 28h-1.5v-11.375h1.5zm4.6875-11.375 3.7187 9.2812 3.7188-9.2812h1.9453v11.375h-1.5v-4.4297l.1406-4.7812-3.7344 9.2109h-1.1484l-3.7266-9.1875.1485 4.7578v4.4297h-1.5v-11.375zm13.5312 6.9219v4.4531h-1.5v-11.375h4.1954c1.2447 0 2.2187.3177 2.9218.9531.7084.6354 1.0625 1.4766 1.0625 2.5235 0 1.1041-.3463 1.9557-1.039 2.5546-.6875.5938-1.6745.8907-2.961.8907zm0-1.2266h2.6954c.802 0 1.4166-.1875 1.8437-.5625.4271-.3802.6406-.9271.6406-1.6406 0-.6771-.2135-1.2188-.6406-1.625-.4271-.4063-1.013-.6172-1.7578-.6328h-2.7813zm10.1016 4.4531h5.3906v1.2266h-6.8984v-11.375h1.5078zm13.5312-4.0312h-4.9296v4.0312h5.7265v1.2266h-7.2265v-11.375h7.1484v1.2344h-5.6484v3.6562h4.9296z" fill="#fff"/><path d="m32.6875 39.3906c-.1406 1.2032-.5859 2.1328-1.3359 2.7891-.7448.651-1.737.9765-2.9766.9765-1.3438 0-2.4219-.4817-3.2344-1.4453-.8073-.9635-1.2109-2.2526-1.2109-3.8671v-1.0938c0-1.0573.1875-1.987.5625-2.7891.3802-.802.9167-1.4166 1.6094-1.8437.6927-.4323 1.4948-.6484 2.4062-.6484 1.2083 0 2.1771.3385 2.9063 1.0156.7291.6718 1.1536 1.6041 1.2734 2.7968h-1.5078c-.1302-.9062-.4141-1.5624-.8516-1.9687-.4323-.4063-1.039-.6094-1.8203-.6094-.9583 0-1.7109.3542-2.2578 1.0625-.5417.7084-.8125 1.7162-.8125 3.0235v1.1015c0 1.2344.2578 2.2162.7734 2.9453.5157.7292 1.237 1.0938 2.1641 1.0938.8333 0 1.4714-.1875 1.9141-.5625.4479-.3802.7448-1.0391.8906-1.9766zm3.9922-7.7656 3.7187 9.2812 3.7188-9.2812h1.9453v11.375h-1.5v-4.4297l.1406-4.7812-3.7343 9.2109h-1.1485l-3.7265-9.1875.1484 4.7578v4.4297h-1.5v-11.375zm15.3828 6.3047c-1.2865-.3698-2.224-.8229-2.8125-1.3594-.5833-.5417-.875-1.2083-.875-2 0-.8958.3568-1.6354 1.0703-2.2187.7188-.5886 1.6511-.8828 2.7969-.8828.7812 0 1.4766.151 2.0859.4531.6146.3021 1.0886.7187 1.4219 1.25.3385.5312.5078 1.112.5078 1.7422h-1.5078c0-.6875-.2188-1.2266-.6562-1.6172-.4376-.3959-1.0547-.5938-1.8516-.5938-.7396 0-1.3177.1641-1.7344.4922-.4114.3229-.6172.7735-.6172 1.3516 0 .4635.1953.8567.586 1.1797.3958.3177 1.0651.6093 2.0078.875.9479.2656 1.6875.5599 2.2187.8828.5365.3177.9323.6901 1.1875 1.1172.2604.427.3906.9296.3906 1.5078 0 .9218-.3593 1.6614-1.0781 2.2187-.7187.5521-1.6797.8281-2.8828.8281-.7812 0-1.5104-.1484-2.1875-.4453-.6771-.302-1.2005-.7135-1.5703-1.2343-.3646-.5209-.5469-1.112-.5469-1.7735h1.5078c0 .6875.2526 1.2318.7578 1.6328.5105.3959 1.1902.5938 2.0391.5938.7917 0 1.3985-.1615 1.8203-.4844.4219-.3229.6328-.763.6328-1.3203s-.1953-.987-.5859-1.2891c-.3906-.3073-1.099-.6093-2.125-.9062z" fill="#fff"/><path d="m56 29.5h-32" stroke="#d72323"/></svg>